<?xml version="1.0" encoding="iso-8859-1"?>
<!-- Generator: Adobe Illustrator 19.0.0, SVG Export Plug-In . SVG Version: 6.00 Build 0)  -->
<svg version="1.1" id="Capa_1" xmlns="http://www.w3.org/2000/svg" xmlns:xlink="http://www.w3.org/1999/xlink" x="0px" y="0px"
	 viewBox="0 0 462.995 462.995" style="enable-background:new 0 0 462.995 462.995;" xml:space="preserve">
<path d="M403.861,196.755c-17.101-39.081-42.43-61.74-75.283-67.348c-27.448-4.682-54.779,3.276-74.736,9.088
	c-5.538,1.613-10.628,3.094-14.845,4.048v-11.948l20.741-20.741c4.365,0.748,8.781,1.116,13.2,1.116
	c22.001,0,44.096-9.087,60.525-25.516c20.778-20.778,29.812-50.616,23.574-77.869c-0.642-2.806-2.833-4.996-5.638-5.638
	c-27.257-6.24-57.092,2.796-77.869,23.573c-19.729,19.729-28.858,47.623-24.393,73.719l-10.141,10.141V47.488
	c0-4.143-3.358-7.5-7.5-7.5s-7.5,3.357-7.5,7.5v29.936l-9.597-9.597c2.617-17.824-3.749-36.677-17.157-50.085
	C182.786,3.287,162.003-2.995,143.004,1.358c-2.805,0.642-4.996,2.832-5.638,5.638c-4.348,19,1.931,39.783,16.386,54.238
	c11.425,11.424,26.801,17.74,42.126,17.74c2.632,0,5.261-0.207,7.87-0.586l20.249,20.25v43.905
	c-4.217-0.954-9.307-2.435-14.845-4.048c-19.956-5.813-47.289-13.772-74.736-9.088c-32.853,5.607-58.182,28.267-75.283,67.348
	c-15.658,35.784-14.876,76.068,2.322,119.733c27.844,70.69,92.172,130.487,117.419,141.396c8.92,3.854,15.898,5.11,21.886,5.11
	c5.695,0,10.494-1.137,15.214-2.255c4.866-1.151,9.461-2.24,15.523-2.24s10.657,1.089,15.523,2.24
	c9.683,2.294,19.694,4.665,37.1-2.855c25.247-10.909,89.575-70.706,117.418-141.396
	C418.738,272.823,419.519,232.539,403.861,196.755z M284.138,36.129c15.948-15.948,38.23-23.544,59.17-20.451
	c3.097,20.94-4.503,43.223-20.451,59.17c-13.445,13.446-31.388,20.955-49.239,21.126l35.204-35.204c2.929-2.93,2.929-7.678,0-10.607
	c-2.929-2.928-7.678-2.928-10.606,0l-35.205,35.205C263.182,67.519,270.693,49.572,284.138,36.129z M164.359,50.627
	c-9.599-9.599-14.415-22.808-13.161-35.438c12.631-1.257,25.838,3.561,35.438,13.16c6.828,6.828,11.22,15.484,12.744,24.458
	l-18.601-18.601c-2.929-2.928-7.678-2.928-10.606,0c-2.929,2.93-2.929,7.678,0,10.607l18.547,18.547
	C179.781,61.821,171.163,57.431,164.359,50.627z M387.583,310.991c-26.885,68.256-88.878,124.251-109.412,133.124
	c-12.839,5.548-19.069,4.072-27.693,2.029c-5.234-1.239-11.167-2.645-18.98-2.645s-13.746,1.405-18.98,2.645
	c-8.625,2.042-14.855,3.518-27.693-2.029c-20.535-8.873-82.527-64.868-109.413-133.124c-15.683-39.817-16.536-76.229-2.536-108.223
	c20.684-47.27,50.307-59.784,79.107-59.784c18.94,0,37.524,5.412,52.975,9.912c11.006,3.206,19.7,5.738,26.54,5.738
	s15.534-2.532,26.54-5.738c38.943-11.342,97.795-28.485,132.082,49.872C404.119,234.762,403.265,271.173,387.583,310.991z"/>
<g>
</g>
<g>
</g>
<g>
</g>
<g>
</g>
<g>
</g>
<g>
</g>
<g>
</g>
<g>
</g>
<g>
</g>
<g>
</g>
<g>
</g>
<g>
</g>
<g>
</g>
<g>
</g>
<g>
</g>
</svg>
